<svg xmlns="http://www.w3.org/2000/svg" width="162.606" height="69" viewBox="0 0 162.606 69">
  <g id="Nexus_Elante" transform="translate(-13.378 -0.22)">
    <g id="Group_417" data-name="Group 417" transform="translate(13.378 34.321)">
      <path id="Path_613" data-name="Path 613" d="M44.16,38.319v-15c0-1.221,0-1.238,1.151-1.5a69.958,69.958,0,0,1,16.81-2.04,8.127,8.127,0,0,1,3.3.663c1.988.872,3.941,1.848,5.946,2.7a1.448,1.448,0,0,1,1.011,1.6c-.052,4.29,0,8.562,0,12.851V53.855c-.035.732-.1.785-.854.558-.436-.14-.872-.314-1.29-.488-1.691-.732-3.365-1.517-5.092-2.18a1.328,1.328,0,0,1-.994-1.482c.017-3.156-.035-6.295-.052-9.451v-.75c0-.523-.244-.663-1.221-.209l-5.789,1.081c-.767,0-.82.436-.837.889-.052,1.465-.14,2.929-.14,4.394,0,1.639.1,3.278.122,4.9.017,1.221,0,1.2-1.186,1.43q-4.943.915-9.887,1.813l-.994-.837V38.284h0Zm12.119-7.568h-.035c0,1.378.017,2.755,0,4.15,0,.645.209.872.994.8h5.719c1.011.1,1.186-.209,1.186-.889,0-2.092,0-4.185.052-6.277,0-.785-.418-1.116-1.343-1.36l-2.947-1.395a3.11,3.11,0,0,0-2.895-.192.927.927,0,0,0-.732,1.011C56.314,27.978,56.279,29.356,56.279,30.751Z" transform="translate(9.515 -19.776)" fill="#184698"/>
      <path id="Path_614" data-name="Path 614" d="M61.542,38.421V23.059a.992.992,0,0,1,.994-1.151c2.232-.349,4.447-.8,6.679-1.238.994-.192,1.988-.331,2.964-.575a4.009,4.009,0,0,1,2.807.314q4.97,2.3,9.939,4.569c1.186.541,2.371,1.081,3.557,1.587,1.395.575,1.238.471,1.238,1.8V52.3c0,.645-.1,1.308-.157,1.953-.593-.192-1.221-.331-1.779-.575-1.691-.732-3.365-1.517-5.057-2.249a1.619,1.619,0,0,1-1.1-1.726c.035-5.754,0-11.509,0-17.263,0-1.378-.017-1.343-1.29-1.866a17.5,17.5,0,0,1-2.354-1.186c-1.255-.767-2.6-.488-3.923-.349-.157,0-.366.314-.418.523a4.824,4.824,0,0,0-.035,1.011V51.621c.017.488-.157.732-.7.837-3.47.645-6.905,1.343-10.375,1.988-1.011.192-1.046.14-1.046-.889V38.439h.035Z" transform="translate(22.404 -19.635)" fill="#184698"/>
      <path id="Path_615" data-name="Path 615" d="M13.468,38.453V23.334c0-1.116,0-1.186,1.1-1.343,4.342-.645,8.614-1.813,13.026-2.075a20.666,20.666,0,0,1,6.138.192,23.349,23.349,0,0,1,3.592,1.43c.174.087.279.366.418.541a2.892,2.892,0,0,1-.541.209c-1.97.349-3.958.663-5.946,1.029-1.639.3-3.278.68-4.917.994a1,1,0,0,0-.924,1.2c.052,1.552,0,3.1.017,4.656,0,.942.035,1.011.976,1.081a15.677,15.677,0,0,0,3.261,0c3.017-.471,5.615.575,8.143,1.988a1.747,1.747,0,0,1,.279.244c-.122.1-.227.244-.366.279-.854.209-1.709.418-2.563.575-2.842.541-5.685,1.046-8.527,1.587-1.186.227-1.186.244-1.186,1.447,0,2.982,0,5.964.035,8.945,0,1.168.017,1.186,1.2,1.186,1.761,0,3.522-.07,5.284,0a8.188,8.188,0,0,1,2.424.471c1.1.4,2.145.959,3.208,1.447.122.052.209.209.3.314-.087.087-.174.209-.279.227-.767.192-1.534.4-2.3.541-2.563.471-5.127.872-7.672,1.36-4.359.82-8.719,1.691-13.078,2.546-.157.035-.331.052-.488.087-.453.087-.732-.052-.7-.575.017-.3.017-.593.017-.889V38.418h.052Z" transform="translate(-13.378 -19.771)" fill="#184698"/>
      <path id="Path_616" data-name="Path 616" d="M92.44,38.311v-15c0-1.1,0-1.151,1.1-1.343,3.714-.663,7.411-1.447,11.142-1.883a59.211,59.211,0,0,1,7.672-.122c1.657.017,2.982,1.029,4.412,1.726.087.052.139.174.227.279-.122.087-.227.227-.366.244-2.267.418-4.534.82-6.8,1.238-1.447.262-2.877.541-4.324.767-.663.1-.976.366-.976,1.046,0,1.726.017,3.435,0,5.161,0,.68.314.872.924.854,1.552-.052,3.1-.052,4.656-.139,2.424-.122,4.481.924,6.539,1.97a2.855,2.855,0,0,1,.541.488,5.382,5.382,0,0,1-.75.244c-3.575.68-7.167,1.343-10.741,2.023-1.046.192-1.168.331-1.186,1.412v9.451c0,.61.174.785.785.767,1.761-.052,3.522,0,5.284-.035a7.037,7.037,0,0,1,3.522.767c.854.436,1.726.854,2.563,1.29.1.052.157.244.244.366a2.845,2.845,0,0,1-.331.157c-1.6.314-3.208.61-4.813.907-4.359.8-8.736,1.6-13.1,2.424-1.813.331-3.627.68-5.423,1.046-.541.1-.785,0-.767-.593.017-1.343,0-2.685,0-4.028V38.329h0Z" transform="translate(45.423 -19.682)" fill="#184698"/>
      <path id="Path_617" data-name="Path 617" d="M82.71,39.088c0-4.743-.017-9.486,0-14.229a1.436,1.436,0,0,0-1.011-1.6c-2.127-.889-4.2-1.883-6.295-2.86a2.969,2.969,0,0,1-.384-.262,1.586,1.586,0,0,1,.436-.192c.872-.052,1.761-.122,2.633-.122,4.987,0,9.992.035,14.979.035A10.254,10.254,0,0,1,98.3,21.372a15.026,15.026,0,0,0,1.709.767c.506.227,1.011.4,1.5.663a4.78,4.78,0,0,1,.7.645,5.155,5.155,0,0,1-.82.3q-2.9.549-5.807,1.046c-.541.087-.837.314-.8.907.035.418,0,.837,0,1.255V51.887a.581.581,0,0,1-.575.663c-3.592.628-7.167,1.273-10.759,1.936-.732.14-.732-.279-.732-.785V39.088h-.017Z" transform="translate(32.467 -19.744)" fill="#184698"/>
      <path id="Path_618" data-name="Path 618" d="M28.837,38.237V23.363c0-1.133,0-1.151,1.081-1.378q5.048-1.02,10.1-2.023c.82-.157.854-.139.854.663V46.45c.035.994.035,1.011,1.1,1.011,1.761,0,3.522,0,5.284-.035a6.463,6.463,0,0,1,3.156.732c.82.4,1.674.767,2.511,1.168a2.035,2.035,0,0,1,.418.366,1.459,1.459,0,0,1-.418.244c-1.517.349-3.017.715-4.534,1.011-4.2.82-8.387,1.639-12.59,2.406-2.023.366-4.045.663-6.086.959-.872.122-.889.087-.889-.82V38.255h0Z" transform="translate(-1.894 -19.695)" fill="#184698"/>
    </g>
    <g id="Group_425" data-name="Group 425" transform="translate(40.148 0.22)">
      <g id="Group_418" data-name="Group 418" transform="translate(29.12 5.51)">
        <path id="Path_619" data-name="Path 619" d="M57.967,4.977A6.276,6.276,0,0,1,59.607,9.7V17.95H56.241V10.121a4.025,4.025,0,0,0-.889-2.842,3.249,3.249,0,0,0-2.528-.959,3.917,3.917,0,0,0-2.947,1.116A4.478,4.478,0,0,0,48.8,10.661V17.95H45.43V3.547h3.208V5.413A5.34,5.34,0,0,1,50.748,3.9a7.4,7.4,0,0,1,2.86-.506,6.029,6.029,0,0,1,4.377,1.587Z" transform="translate(-45.43 -3.373)" fill="#612166"/>
        <path id="Path_620" data-name="Path 620" d="M69.165,11.82h-11.3a3.917,3.917,0,0,0,1.552,2.528,5.024,5.024,0,0,0,3.121.924A5.229,5.229,0,0,0,66.445,13.7l1.813,2.075A6.18,6.18,0,0,1,65.8,17.539a9.761,9.761,0,0,1-7.533-.349,6.778,6.778,0,0,1-2.79-2.633,7.326,7.326,0,0,1-.976-3.819,7.356,7.356,0,0,1,.959-3.784,6.868,6.868,0,0,1,2.65-2.633,7.768,7.768,0,0,1,3.836-.942,7.629,7.629,0,0,1,3.766.924A6.647,6.647,0,0,1,68.293,6.92a7.822,7.822,0,0,1,.924,3.889q0,.34-.052.994ZM59.208,7.042a3.989,3.989,0,0,0-1.36,2.546h8.178A3.951,3.951,0,0,0,64.7,7.059a4.381,4.381,0,0,0-5.493-.017Z" transform="translate(-38.684 -3.38)" fill="#612166"/>
        <path id="Path_621" data-name="Path 621" d="M73.675,17.873l-3.7-4.987-3.714,4.987H62.55l5.615-7.306-5.371-7.1h3.749L70.083,8.2l3.54-4.726h3.644l-5.388,7.045,5.632,7.359h-3.8Z" transform="translate(-32.697 -3.313)" fill="#612166"/>
        <path id="Path_622" data-name="Path 622" d="M85.6,3.48V17.866H82.4V16.035a5.438,5.438,0,0,1-2.023,1.5,6.488,6.488,0,0,1-2.616.523,6.329,6.329,0,0,1-4.551-1.6,6.34,6.34,0,0,1-1.657-4.76V3.48h3.365v7.76a4.192,4.192,0,0,0,.872,2.895,3.17,3.17,0,0,0,2.494.959,3.783,3.783,0,0,0,2.877-1.116,4.473,4.473,0,0,0,1.064-3.226V3.48h3.365Z" transform="translate(-26.004 -3.306)" fill="#612166"/>
        <path id="Path_623" data-name="Path 623" d="M83.128,17.664a9.126,9.126,0,0,1-2.668-1.151l1.29-2.563A8.243,8.243,0,0,0,84.087,15a9.61,9.61,0,0,0,2.685.384c2.005,0,3.017-.523,3.017-1.587a1.056,1.056,0,0,0-.767-1.046,13.531,13.531,0,0,0-2.459-.558,18.047,18.047,0,0,1-2.895-.628,4.369,4.369,0,0,1-1.936-1.221,3.442,3.442,0,0,1-.82-2.441,3.865,3.865,0,0,1,1.709-3.278A7.765,7.765,0,0,1,87.243,3.4a13.206,13.206,0,0,1,2.964.331,8.1,8.1,0,0,1,2.424.907L91.341,7.2A8.029,8.029,0,0,0,87.208,6.12a4.524,4.524,0,0,0-2.249.453,1.328,1.328,0,0,0-.767,1.168,1.185,1.185,0,0,0,.82,1.151,12.414,12.414,0,0,0,2.546.628,17.418,17.418,0,0,1,2.825.628,4.343,4.343,0,0,1,1.9,1.186,3.332,3.332,0,0,1,.8,2.371,3.8,3.8,0,0,1-1.761,3.243,8.313,8.313,0,0,1-4.778,1.221,13.231,13.231,0,0,1-3.418-.453Z" transform="translate(-19.377 -3.365)" fill="#612166"/>
      </g>
      <g id="Group_424" data-name="Group 424" transform="translate(0)">
        <g id="Group_419" data-name="Group 419" transform="translate(14.63 9.537)">
          <path id="Path_624" data-name="Path 624" d="M42,10.469A7.493,7.493,0,0,0,46.5,6.51S42.072,3.546,37.12,8.882Z" transform="translate(-37.12 -5.689)" fill="#ea0029"/>
          <path id="Path_625" data-name="Path 625" d="M42,9.107a7.512,7.512,0,0,1,1.308,5.842s-5.336-.209-6.19-7.428Z" transform="translate(-37.12 -4.327)" fill="#ea0029"/>
        </g>
        <g id="Group_420" data-name="Group 420" transform="translate(12.197)">
          <path id="Path_626" data-name="Path 626" d="M40.163,5.713A7.492,7.492,0,0,0,37.792.22s-4.185,3.3-.645,9.66l3.017-4.15Z" transform="translate(-35.725 -0.22)" fill="#ff6b00"/>
          <path id="Path_627" data-name="Path 627" d="M39.557,3.529a7.545,7.545,0,0,1,5.964.558s-1.848,5-8.98,3.592Z" transform="translate(-35.118 1.964)" fill="#ff6b00"/>
        </g>
        <g id="Group_421" data-name="Group 421" transform="translate(1.395)">
          <path id="Path_628" data-name="Path 628" d="M35.494,3.529a7.545,7.545,0,0,0-5.964.558s1.848,5,8.98,3.592Z" transform="translate(-29.53 1.964)" fill="#ffa400"/>
          <path id="Path_629" data-name="Path 629" d="M32.951,5.713A7.492,7.492,0,0,1,35.323.22s4.185,3.3.645,9.66L32.951,5.73Z" transform="translate(-26.988 -0.22)" fill="#ffa400"/>
        </g>
        <g id="Group_422" data-name="Group 422" transform="translate(0 9.537)">
          <path id="Path_630" data-name="Path 630" d="M31.928,9.107a7.512,7.512,0,0,0-1.308,5.842s5.336-.209,6.19-7.428L31.928,9.107Z" transform="translate(-27.429 -4.327)" fill="#e81f76"/>
          <path id="Path_631" data-name="Path 631" d="M33.229,10.469a7.493,7.493,0,0,1-4.5-3.958s4.429-2.964,9.381,2.371Z" transform="translate(-28.73 -5.689)" fill="#e81f76"/>
        </g>
        <path id="Path_632" data-name="Path 632" d="M35.61,13.754a7.508,7.508,0,0,0,5.161,3.052s1.447-5.127-5.161-8.2Z" transform="translate(-23.613 6.02)" fill="#ffa400"/>
        <path id="Path_633" data-name="Path 633" d="M37.869,13.754a7.508,7.508,0,0,1-5.161,3.052s-1.447-5.127,5.161-8.2Z" transform="translate(-25.872 6.02)" fill="#ffa400"/>
        <g id="Group_423" data-name="Group 423" transform="translate(6.701 14.63)">
          <path id="Path_634" data-name="Path 634" d="M35.61,13.754a7.508,7.508,0,0,0,5.161,3.052s1.447-5.127-5.161-8.2Z" transform="translate(-30.314 -8.61)" fill="#9d1d96"/>
          <path id="Path_635" data-name="Path 635" d="M37.869,13.754a7.508,7.508,0,0,1-5.161,3.052s-1.447-5.127,5.161-8.2Z" transform="translate(-32.573 -8.61)" fill="#9d1d96"/>
        </g>
      </g>
    </g>
  </g>
</svg>
